<svg xmlns="http://www.w3.org/2000/svg" viewBox="0 0 128 128" width="512" height="512"><path fill="#571900" d="m102.82 25.19a2 2 0 0 0 -3.23-.6l-33.76 33.75a2 2 0 0 0 0 2.83 4 4 0 0 1 0 5.66 4.1 4.1 0 0 1 -5.66 0 2 2 0 0 0 -2.83 0l-33.75 33.76a2 2 0 0 0 .4 3.13c23 22.92 55.73 22.74 78.58-.1 23.08-23.08 23.16-55.28.25-78.43zm-9.82 11.67a40.46 40.46 0 0 1 9.73 34.76l-31.73-7.73a7.92 7.92 0 0 0 -1.1-4zm-12 63.36-13.52-29.59a7.94 7.94 0 0 0 2.57-2.85l31.7 7.73a40.33 40.33 0 0 1 -20.82 24.71zm-22-29.33a7.93 7.93 0 0 0 4.7 1.11l13.56 29.84a40.47 40.47 0 0 1 -41.4-7.84zm40.81 29.9c-20.81 20.79-50.35 21.58-71.91 1.14l5.1-5.14a44.42 44.42 0 0 0 62.79-62.79l5.09-5c20.34 21.35 19.97 50.68-1.14 71.79z"/><path fill="#571900" d="m113.7 29.55h-.29a2 2 0 0 1 -1.69-2.27 76.66 76.66 0 0 0 .78-9.37 2 2 0 1 1 4 0 80.84 80.84 0 0 1 -.82 10 2 2 0 0 1 -1.98 1.64z"/><path fill="#571900" d="m114.5 15.89h-46.83a2 2 0 0 0 -2 2 3.89 3.89 0 1 1 -7.77 0 2 2 0 0 0 -2-2h-46.82a2 2 0 0 0 -1.92 2.55c0 25.3 15 46.05 38.17 52.88a2 2 0 0 0 1.14-3.84c-21-6.18-34.68-24.77-35.28-47.59h7a43.37 43.37 0 0 0 39.57 41.43 2 2 0 0 0 .36-4 40.13 40.13 0 0 1 -9-1.88l11.2-29.8a7.79 7.79 0 0 0 3.74-.2l9.67 15.33a2 2 0 0 0 3.38-2.14l-9.64-15.28a7.82 7.82 0 0 0 1.94-3.46h45.09a2 2 0 0 0 0-4zm-69.09 38.11a39.4 39.4 0 0 1 -23.19-34.11h31.94a8 8 0 0 0 2.54 4z"/></svg>
